# xmcd
#
# Track frame offsets:
#	150
#	18226
#	30152
#	52828
#	69861
#	86260
#	107304
#	123805
#	141366
#	155396
#	176833
#	195782
#	214056
#	229704
#	248077
#
# Disc length: 3578 seconds
#
# Revision: 1
# Processed by: cddbd v1.5.1PL0 Copyright (c) Steve Scherf et al.
# Submitted via: audiograbber 1.83.01
#
DISCID=a80df80f
DTITLE=Willie Nelson - CKC029
DYEAR=1900
DGENRE=Karaoke
TTITLE0=Always On My Mind
TTITLE1=On The Road Again
TTITLE2=City Of New Orleans
TTITLE3=Whisky River
TTITLE4=Crazy
TTITLE5=Mendocino County Line W/ Leeann Womack
TTITLE6=Mama Don't Let Your Babies Grow Up To Be Cowboys
TTITLE7=To All The Girls I've Loved Before W/ Julio Engleisi
TTITLE8=Good Hearted Woman
TTITLE9=Angel Flying Too Close To The Ground
TTITLE10=Poncho And Lefty
TTITLE11=Seven Spanish Angels
TTITLE12=Beer For My Horses W/ Toby Keith
TTITLE13=All Of Me
TTITLE14=Georgia ( On My Mind )
EXTD=
EXTT0=
EXTT1=
EXTT2=
EXTT3=
EXTT4=
EXTT5=
EXTT6=
EXTT7=
EXTT8=
EXTT9=
EXTT10=
EXTT11=
EXTT12=
EXTT13=
EXTT14=
PLAYORDER=
